<mxfile host="app.diagrams.net" modified="2024-04-13T03:32:50.939Z" agent="Mozilla/5.0 (Windows NT 10.0; Win64; x64) AppleWebKit/537.36 (KHTML, like Gecko) Chrome/123.0.0.0 Safari/537.36" version="24.2.5" etag="Ij2tMr_5S2t6COQK9Np9" type="github">
  <diagram name="Page-1" id="dXEGW8tcRREeRCtnYVKH">
    <mxGraphModel>
      <root>
        <mxCell id="0" />
        <mxCell id="1" parent="0" />
      </root>
    </mxGraphModel>
  </diagram>
</mxfile>
